# xmcd
#
# Track frame offsets:
#	150
#	12265
#	23878
#	38918
#	50300
#	62133
#	76698
#	89893
#	105180
#	116108
#	128218
#	139138
#
# Disc length: 2024 seconds
#
# Revision: 2
# Processed by: cddbd v1.4b42PL1 Copyright (c) Steve Scherf et al.
# Submitted via: audiograbber 1.80
#
DISCID=9a07e60c
DTITLE=Aaron Neville - Aaron Neville - 1967 - Tell It Like It Is  - p
DYEAR=1900
DGENRE=
TTITLE0=Tell It Like It Is
TTITLE1=Why Worry
TTITLE2=She Took You For A Ride
TTITLE3=A Hard Nut To Crack
TTITLE4=You Think You're So Smart
TTITLE5=Jailhouse
TTITLE6=Bet You're Surprised
TTITLE7=Love, Love, Love
TTITLE8=Since You're Gone
TTITLE9=Space Man
TTITLE10=Hold On, Help Is On The Way
TTITLE11=Those Three Words
EXTD=
EXTT0=
EXTT1=
EXTT2=
EXTT3=
EXTT4=
EXTT5=
EXTT6=
EXTT7=
EXTT8=
EXTT9=
EXTT10=
EXTT11=
PLAYORDER=
